<svg width="40" height="40" viewBox="0 0 40 40" fill="none" xmlns="http://www.w3.org/2000/svg">
<path d="M18.0834 26.125L14.5834 22.625C14.4691 22.5139 14.3453 22.4305 14.2119 22.375C14.0786 22.3194 13.9405 22.2917 13.7976 22.2917C13.6548 22.2917 13.5139 22.3229 13.375 22.3854C13.2361 22.4479 13.1111 22.5417 13 22.6667C12.7778 22.8963 12.6667 23.169 12.6667 23.4847C12.6667 23.8005 12.7778 24.0694 13 24.2917L17.2084 28.5C17.3472 28.6389 17.488 28.7361 17.6306 28.7917C17.7732 28.8472 17.926 28.875 18.0889 28.875C18.2519 28.875 18.4028 28.8472 18.5417 28.7917C18.6806 28.7361 18.8195 28.6389 18.9584 28.5L26.8334 20.625C27.0556 20.4004 27.1667 20.1289 27.1667 19.8107C27.1667 19.4925 27.0546 19.2222 26.8305 19C26.6063 18.7778 26.3355 18.6667 26.018 18.6667C25.7005 18.6667 25.4306 18.7778 25.2084 19L18.0834 26.125ZM9.16669 36.6667C8.50002 36.6667 7.91669 36.4167 7.41669 35.9167C6.91669 35.4167 6.66669 34.8333 6.66669 34.1667V5.83333C6.66669 5.16666 6.91669 4.58333 7.41669 4.08333C7.91669 3.58333 8.50002 3.33333 9.16669 3.33333H23.1667C23.5124 3.33333 23.8418 3.40277 24.1551 3.54166C24.4684 3.68055 24.7361 3.86111 24.9584 4.08333L32.5834 11.7083C32.8056 11.9305 32.9861 12.1983 33.125 12.5116C33.2639 12.8249 33.3334 13.1543 33.3334 13.5V34.1667C33.3334 34.8333 33.0834 35.4167 32.5834 35.9167C32.0834 36.4167 31.5 36.6667 30.8334 36.6667H9.16669ZM22.9584 12.3333V5.83333H9.16669V34.1667H30.8334V13.5833H24.2084C23.8542 13.5833 23.5573 13.4635 23.3177 13.224C23.0781 12.9844 22.9584 12.6875 22.9584 12.3333Z" fill="white"/>
</svg>
