<svg width="40" height="40" viewBox="0 0 40 40" fill="none" xmlns="http://www.w3.org/2000/svg">
<path d="M8.97429 33.3333C8.33382 33.3333 7.78908 33.1088 7.34008 32.6599C6.89111 32.2109 6.66663 31.6661 6.66663 31.0257V8.97433C6.66663 8.33386 6.89111 7.78913 7.34008 7.34013C7.78908 6.89115 8.33382 6.66667 8.97429 6.66667H31.0256C31.6661 6.66667 32.2108 6.89115 32.6598 7.34013C33.1088 7.78913 33.3333 8.33386 33.3333 8.97433V31.0257C33.3333 31.6661 33.1088 32.2109 32.6598 32.6599C32.2108 33.1088 31.6661 33.3333 31.0256 33.3333H8.97429ZM8.97429 32.0513H31.0256C31.282 32.0513 31.5171 31.9445 31.7308 31.7308C31.9444 31.5171 32.0513 31.2821 32.0513 31.0257V8.97433C32.0513 8.71795 31.9444 8.4829 31.7308 8.26921C31.5171 8.05554 31.282 7.94871 31.0256 7.94871H8.97429C8.7179 7.94871 8.48286 8.05554 8.26917 8.26921C8.0555 8.4829 7.94867 8.71795 7.94867 8.97433V31.0257C7.94867 31.2821 8.0555 31.5171 8.26917 31.7308C8.48286 31.9445 8.7179 32.0513 8.97429 32.0513ZM13.1433 27.4423C13.4537 27.4423 13.7126 27.3379 13.9198 27.1292C14.1271 26.9204 14.2307 26.6608 14.2307 26.3503C14.2307 26.0399 14.1263 25.781 13.9176 25.5737C13.7088 25.3665 13.4492 25.2628 13.1388 25.2628C12.8283 25.2628 12.5694 25.3672 12.3621 25.576C12.1549 25.7847 12.0513 26.0444 12.0513 26.3548C12.0513 26.6653 12.1556 26.9241 12.3644 27.1314C12.5732 27.3387 12.8328 27.4423 13.1433 27.4423ZM13.1433 21.0898C13.4537 21.0898 13.7126 20.9854 13.9198 20.7766C14.1271 20.5678 14.2307 20.3082 14.2307 19.9978C14.2307 19.6873 14.1263 19.4284 13.9176 19.2212C13.7088 19.0139 13.4492 18.9103 13.1388 18.9103C12.8283 18.9103 12.5694 19.0146 12.3621 19.2234C12.1549 19.4322 12.0513 19.6918 12.0513 20.0023C12.0513 20.3127 12.1556 20.5716 12.3644 20.7788C12.5732 20.9861 12.8328 21.0898 13.1433 21.0898ZM13.1433 14.7372C13.4537 14.7372 13.7126 14.6328 13.9198 14.424C14.1271 14.2153 14.2307 13.9556 14.2307 13.6452C14.2307 13.3347 14.1263 13.0759 13.9176 12.8686C13.7088 12.6613 13.4492 12.5577 13.1388 12.5577C12.8283 12.5577 12.5694 12.6621 12.3621 12.8708C12.1549 13.0796 12.0513 13.3392 12.0513 13.6497C12.0513 13.9601 12.1556 14.219 12.3644 14.4263C12.5732 14.6335 12.8328 14.7372 13.1433 14.7372ZM19.1538 26.9936H26.9166C27.0983 26.9936 27.2505 26.9313 27.3734 26.8067C27.4962 26.6821 27.5577 26.5278 27.5577 26.3436C27.5577 26.1594 27.4962 26.008 27.3734 25.8894C27.2505 25.7708 27.0983 25.7115 26.9166 25.7115H19.1538C18.9722 25.7115 18.8199 25.7738 18.6971 25.8984C18.5742 26.023 18.5128 26.1774 18.5128 26.3615C18.5128 26.5457 18.5742 26.6971 18.6971 26.8157C18.8199 26.9343 18.9722 26.9936 19.1538 26.9936ZM19.1538 20.641H26.9166C27.0983 20.641 27.2505 20.5788 27.3734 20.4542C27.4962 20.3296 27.5577 20.1752 27.5577 19.991C27.5577 19.8068 27.4962 19.6555 27.3734 19.5369C27.2505 19.4183 27.0983 19.359 26.9166 19.359H19.1538C18.9722 19.359 18.8199 19.4213 18.6971 19.5458C18.5742 19.6704 18.5128 19.8248 18.5128 20.009C18.5128 20.1932 18.5742 20.3445 18.6971 20.4631C18.8199 20.5817 18.9722 20.641 19.1538 20.641ZM19.1538 14.2885H26.9166C27.0983 14.2885 27.2505 14.2262 27.3734 14.1016C27.4962 13.977 27.5577 13.8226 27.5577 13.6385C27.5577 13.4543 27.4962 13.3029 27.3734 13.1843C27.2505 13.0657 27.0983 13.0064 26.9166 13.0064H19.1538C18.9722 13.0064 18.8199 13.0687 18.6971 13.1933C18.5742 13.3179 18.5128 13.4723 18.5128 13.6564C18.5128 13.8406 18.5742 13.992 18.6971 14.1106C18.8199 14.2292 18.9722 14.2885 19.1538 14.2885Z" fill="white"/>
</svg>
