<svg width="30" height="30" viewBox="0 0 30 30" fill="none" xmlns="http://www.w3.org/2000/svg">
<path d="M2.25003 25C1.95141 25 1.70314 24.901 1.50525 24.7031C1.30733 24.5052 1.20837 24.2569 1.20837 23.9583V21.875C1.20837 21.1528 1.39413 20.4948 1.76566 19.901C2.13718 19.3073 2.64585 18.8611 3.29169 18.5625C4.73614 17.9028 6.08684 17.4219 7.34378 17.1198C8.60072 16.8177 9.88892 16.6667 11.2084 16.6667C12.5278 16.6667 13.8125 16.8177 15.0625 17.1198C16.3125 17.4219 17.6597 17.9028 19.1042 18.5625C19.75 18.8611 20.2622 19.3073 20.6407 19.901C21.0191 20.4948 21.2084 21.1528 21.2084 21.875V23.9583C21.2084 24.2569 21.1094 24.5052 20.9115 24.7031C20.7136 24.901 20.4653 25 20.1667 25H2.25003ZM22.6354 25C22.8368 24.9236 22.9966 24.7899 23.1146 24.5989C23.2327 24.408 23.2917 24.1771 23.2917 23.9062V21.7917C23.2917 20.6111 22.9844 19.5989 22.3698 18.7552C21.7552 17.9114 20.9306 17.2153 19.8958 16.6667C21.2083 16.8194 22.4445 17.0538 23.6042 17.3698C24.7639 17.6857 25.7431 18.0555 26.5417 18.4792C27.25 18.8819 27.8021 19.3628 28.1979 19.9218C28.5938 20.4809 28.7917 21.1042 28.7917 21.7917V23.9583C28.7917 24.2569 28.6927 24.5052 28.4948 24.7031C28.2969 24.901 28.0486 25 27.75 25H22.6354ZM11.2084 14.9791C9.83337 14.9791 8.69101 14.5243 7.78128 13.6146C6.87155 12.7048 6.41669 11.5625 6.41669 10.1875C6.41669 8.81247 6.87155 7.67012 7.78128 6.76041C8.69101 5.85068 9.83337 5.39581 11.2084 5.39581C12.5834 5.39581 13.7257 5.85068 14.6354 6.76041C15.5452 7.67012 16 8.81247 16 10.1875C16 11.5625 15.5452 12.7048 14.6354 13.6146C13.7257 14.5243 12.5834 14.9791 11.2084 14.9791ZM22.875 10.1875C22.875 11.5625 22.4201 12.7048 21.5104 13.6146C20.6007 14.5243 19.4583 14.9791 18.0833 14.9791C17.8542 14.9791 17.5868 14.96 17.2812 14.9218C16.9757 14.8837 16.7084 14.8264 16.4792 14.75C17 14.1805 17.3976 13.5069 17.6719 12.7291C17.9462 11.9514 18.0833 11.1041 18.0833 10.1875C18.0833 9.2708 17.9462 8.43747 17.6719 7.68747C17.3976 6.93747 17 6.24997 16.4792 5.62497C16.7292 5.54859 16.9965 5.4913 17.2812 5.45309C17.566 5.41491 17.8333 5.39581 18.0833 5.39581C19.4583 5.39581 20.6007 5.85068 21.5104 6.76041C22.4201 7.67012 22.875 8.81247 22.875 10.1875Z" fill="white"/>
</svg>
