<svg width="40" height="40" viewBox="0 0 40 40" fill="none" xmlns="http://www.w3.org/2000/svg">
<path d="M10.0833 29.5353C11.6624 28.4626 13.2382 27.6213 14.8109 27.0112C16.3835 26.4012 18.1133 26.0962 20 26.0962C21.8868 26.0962 23.6181 26.4012 25.1939 27.0112C26.7698 27.6213 28.3472 28.4626 29.9263 29.5353C31.1272 28.2276 32.0593 26.7768 32.7228 25.1831C33.3862 23.5894 33.718 21.8617 33.718 20C33.718 16.1645 32.3905 12.9193 29.7356 10.2644C27.0807 7.6095 23.8355 6.28204 20 6.28204C16.1645 6.28204 12.9193 7.6095 10.2644 10.2644C7.6095 12.9193 6.28204 16.1645 6.28204 20C6.28204 21.8617 6.61537 23.5894 7.28204 25.1831C7.94871 26.7768 8.88247 28.2276 10.0833 29.5353ZM19.9897 20.641C18.5991 20.641 17.43 20.1638 16.4824 19.2092C15.5347 18.2547 15.0609 17.0821 15.0609 15.6916C15.0609 14.301 15.5382 13.1319 16.4927 12.1843C17.4472 11.2367 18.6198 10.7628 20.0103 10.7628C21.4009 10.7628 22.57 11.2401 23.5176 12.1946C24.4653 13.1492 24.9391 14.3217 24.9391 15.7122C24.9391 17.1028 24.4618 18.2719 23.5073 19.2195C22.5528 20.1672 21.3802 20.641 19.9897 20.641ZM20.0195 35C17.921 35 15.9625 34.6106 14.1438 33.8317C12.3252 33.0529 10.736 31.9813 9.37621 30.617C8.01643 29.2527 6.94711 27.6667 6.16825 25.8591C5.38942 24.0515 5 22.1001 5 20.005C5 17.9098 5.38942 15.9567 6.16825 14.1458C6.94711 12.3349 8.01869 10.7473 9.383 9.383C10.7473 8.01869 12.3333 6.94711 14.1409 6.16825C15.9485 5.38942 17.8999 5 19.995 5C22.0902 5 24.0433 5.38942 25.8542 6.16825C27.6651 6.94711 29.2527 8.01869 30.617 9.383C31.9813 10.7473 33.0529 12.3354 33.8317 14.1472C34.6106 15.9589 35 17.9034 35 19.9805C35 22.079 34.6106 24.0375 33.8317 25.8562C33.0529 27.6748 31.9813 29.264 30.617 30.6238C29.2527 31.9836 27.6646 33.0529 25.8528 33.8317C24.0411 34.6106 22.0966 35 20.0195 35ZM20 33.718C21.5705 33.718 23.133 33.4477 24.6875 32.907C26.242 32.3665 27.6421 31.5513 28.8878 30.4615C27.6421 29.5043 26.2671 28.7511 24.7628 28.2019C23.2586 27.6528 21.6709 27.3782 20 27.3782C18.3291 27.3782 16.7361 27.6474 15.2212 28.1859C13.7062 28.7244 12.3472 29.4829 11.1443 30.4615C12.3686 31.5513 13.758 32.3665 15.3125 32.907C16.867 33.4477 18.4295 33.718 20 33.718ZM20.0045 19.359C21.0528 19.359 21.9236 19.0108 22.617 18.3144C23.3104 17.6181 23.657 16.7458 23.657 15.6975C23.657 14.6492 23.3089 13.7783 22.6125 13.0849C21.9161 12.3916 21.0438 12.0449 19.9955 12.0449C18.9472 12.0449 18.0764 12.3931 17.383 13.0894C16.6896 13.7858 16.343 14.6581 16.343 15.7064C16.343 16.7547 16.6911 17.6255 17.3875 18.3189C18.0839 19.0123 18.9562 19.359 20.0045 19.359Z" fill="white"/>
</svg>
