<svg width="40" height="40" viewBox="0 0 40 40" fill="none" xmlns="http://www.w3.org/2000/svg">
<path d="M21.7243 35H18.2436C17.9594 35 17.7099 34.9081 17.4951 34.7244C17.2804 34.5406 17.1453 34.3066 17.0897 34.0225L16.5513 30.2308C15.938 30.0363 15.2649 29.7351 14.532 29.3269C13.7991 28.9188 13.1784 28.4808 12.6698 28.0128L9.21151 29.6122C8.94868 29.7297 8.67516 29.7398 8.39097 29.6426C8.1068 29.5454 7.89207 29.3547 7.74676 29.0705L5.9583 25.9583C5.813 25.7019 5.77666 25.4316 5.8493 25.1474C5.92197 24.8633 6.07261 24.6346 6.30122 24.4615L9.4038 22.157C9.34825 21.8216 9.30285 21.4674 9.2676 21.0945C9.23235 20.7217 9.21472 20.3675 9.21472 20.032C9.21472 19.718 9.23235 19.3745 9.2676 19.0016C9.30285 18.6287 9.34825 18.2425 9.4038 17.843L6.30122 15.5385C6.07261 15.3654 5.92197 15.1368 5.8493 14.8526C5.77666 14.5684 5.813 14.2981 5.9583 14.0417L7.74676 10.9615C7.91343 10.7201 8.12816 10.5454 8.39097 10.4375C8.6538 10.3296 8.91664 10.3344 9.17947 10.4519L12.6378 11.9872C13.2104 11.5192 13.8418 11.0865 14.532 10.6891C15.2222 10.2917 15.8846 9.99893 16.5192 9.81087L17.0897 5.97754C17.1453 5.69337 17.2804 5.4594 17.4951 5.27563C17.7099 5.09188 17.9594 5 18.2436 5H21.7243C22.0085 5 22.2633 5.09188 22.4888 5.27563C22.7142 5.4594 22.8547 5.69337 22.9102 5.97754L23.4487 9.80129C24.1474 10.0598 24.8114 10.3648 25.4407 10.7163C26.07 11.0678 26.6677 11.4914 27.2339 11.9872L30.8205 10.4519C31.0833 10.3344 31.3515 10.3189 31.625 10.4054C31.8985 10.492 32.1079 10.6667 32.2532 10.9295L34.0416 14.032C34.1869 14.2885 34.2302 14.5604 34.1715 14.8478C34.1127 15.1351 33.9551 15.3654 33.6987 15.5385L30.4679 17.8878C30.5662 18.2724 30.6276 18.6405 30.6522 18.992C30.6768 19.3435 30.6891 19.6795 30.6891 20C30.6891 20.2991 30.6715 20.6229 30.6362 20.9712C30.6009 21.3194 30.5448 21.7073 30.4679 22.1346L33.6666 24.4615C33.8953 24.6132 34.0459 24.8365 34.1186 25.1314C34.1912 25.4263 34.1442 25.7019 33.9776 25.9583L32.2211 29.1026C32.0545 29.3654 31.8344 29.5401 31.5609 29.6266C31.2874 29.7132 31.0085 29.6977 30.7243 29.5801L27.2339 27.9808C26.6399 28.4915 26.0261 28.9418 25.3926 29.3317C24.7591 29.7217 24.1111 30.0107 23.4487 30.1987L22.9102 34.0225C22.8547 34.3066 22.7142 34.5406 22.4888 34.7244C22.2633 34.9081 22.0085 35 21.7243 35ZM19.9038 23.9744C21.0192 23.9744 21.9604 23.5908 22.7276 22.8237C23.4946 22.0566 23.8782 21.1154 23.8782 20C23.8782 18.8846 23.4946 17.9434 22.7276 17.1763C21.9604 16.4092 21.0192 16.0256 19.9038 16.0256C18.8098 16.0256 17.8739 16.4092 17.0961 17.1763C16.3183 17.9434 15.9294 18.8846 15.9294 20C15.9294 21.1154 16.3183 22.0566 17.0961 22.8237C17.8739 23.5908 18.8098 23.9744 19.9038 23.9744ZM19.9038 22.6923C19.1624 22.6923 18.5283 22.4289 18.0016 21.9023C17.4749 21.3755 17.2115 20.7414 17.2115 20C17.2115 19.2586 17.4749 18.6245 18.0016 18.0978C18.5283 17.5711 19.1624 17.3077 19.9038 17.3077C20.6666 17.3077 21.3061 17.5711 21.8221 18.0978C22.3381 18.6245 22.5961 19.2586 22.5961 20C22.5961 20.7414 22.3381 21.3755 21.8221 21.9023C21.3061 22.4289 20.6666 22.6923 19.9038 22.6923ZM18.2628 33.718H21.7051L22.3205 29.0833C23.1731 28.8611 23.9557 28.5459 24.6683 28.1378C25.3808 27.7297 26.1025 27.1816 26.8333 26.4936L31.1218 28.3462L32.7884 25.4423L29 22.6314C29.1111 22.1164 29.196 21.6512 29.2548 21.2356C29.3135 20.82 29.3429 20.4081 29.3429 20C29.3429 19.5491 29.3152 19.1266 29.2596 18.7324C29.204 18.3382 29.1175 17.9049 29 17.4327L32.8526 14.5577L31.1859 11.6538L26.8013 13.5064C26.2692 12.9124 25.579 12.3563 24.7308 11.8381C23.8825 11.32 23.0683 11.0128 22.2884 10.9167L21.7371 6.28204H18.2628L17.7436 10.8846C16.8419 11.0577 16.024 11.3536 15.29 11.7724C14.556 12.1912 13.8376 12.7585 13.1346 13.4744L8.81405 11.6538L7.14739 14.5577L10.9358 17.3365C10.8034 17.7447 10.7078 18.1725 10.649 18.6202C10.5902 19.0678 10.5608 19.5385 10.5608 20.032C10.5608 20.4829 10.5902 20.9215 10.649 21.3478C10.7078 21.774 10.7927 22.2019 10.9038 22.6314L7.14739 25.4423L8.81405 28.3462L13.1025 26.5256C13.7692 27.2137 14.4748 27.7618 15.2195 28.1699C15.9642 28.578 16.7948 28.8932 17.7115 29.1154L18.2628 33.718Z" fill="white"/>
</svg>
