<svg width="30" height="30" viewBox="0 0 30 30" fill="none" xmlns="http://www.w3.org/2000/svg">
<path d="M12.5 14.8958C11.125 14.8958 9.98264 14.441 9.07291 13.5312C8.1632 12.6215 7.70834 11.4792 7.70834 10.1042C7.70834 8.72916 8.1632 7.5868 9.07291 6.67709C9.98264 5.76736 11.125 5.3125 12.5 5.3125C13.875 5.3125 15.0174 5.76736 15.9271 6.67709C16.8368 7.5868 17.2917 8.72916 17.2917 10.1042C17.2917 11.4792 16.8368 12.6215 15.9271 13.5312C15.0174 14.441 13.875 14.8958 12.5 14.8958ZM3.54166 24.9167C3.24305 24.9167 2.99479 24.8177 2.79688 24.6198C2.59896 24.4219 2.5 24.1736 2.5 23.875V21.7917C2.5 21.0764 2.68055 20.4236 3.04166 19.8333C3.40278 19.2431 3.91668 18.7917 4.58334 18.4792C5.93751 17.8542 7.2639 17.3819 8.5625 17.0625C9.86113 16.7431 11.1736 16.5833 12.5 16.5833H12.8854C13.0174 16.5833 13.1389 16.5903 13.25 16.6042C13.0972 16.9236 12.9636 17.2761 12.849 17.6615C12.7344 18.0469 12.6389 18.4444 12.5625 18.8542C12.4583 19.4792 12.4236 20.1371 12.4583 20.8281C12.4931 21.5191 12.6042 22.1875 12.7917 22.8333C12.9028 23.2292 13.0451 23.599 13.2188 23.9427C13.3924 24.2865 13.5903 24.6111 13.8125 24.9167H3.54166ZM21.5417 22.4792C22.2709 22.4792 22.8698 22.2448 23.3386 21.776C23.8073 21.3073 24.0417 20.7083 24.0417 19.9792C24.0417 19.25 23.8073 18.651 23.3386 18.1823C22.8698 17.7135 22.2709 17.4792 21.5417 17.4792C20.8125 17.4792 20.2136 17.7135 19.7448 18.1823C19.2761 18.651 19.0417 19.25 19.0417 19.9792C19.0417 20.7083 19.2761 21.3073 19.7448 21.776C20.2136 22.2448 20.8125 22.4792 21.5417 22.4792ZM20.2292 24.25C19.9097 24.1458 19.592 24.0087 19.2761 23.8385C18.9601 23.6684 18.6806 23.4722 18.4375 23.25L17.0729 23.5938C16.9549 23.6354 16.8403 23.6337 16.7292 23.5885C16.6181 23.5434 16.5347 23.4653 16.4792 23.3542L15.9583 22.4583C15.8889 22.3611 15.8663 22.2535 15.8907 22.1354C15.9149 22.0174 15.9757 21.9132 16.0729 21.8229L17.2083 20.7708C17.1667 20.5486 17.1458 20.2847 17.1458 19.9792C17.1458 19.6736 17.1667 19.4097 17.2083 19.1875L16.0729 18.1354C15.9757 18.0451 15.9149 17.941 15.8907 17.8229C15.8663 17.7049 15.8889 17.5972 15.9583 17.5L16.4792 16.6042C16.5347 16.4931 16.6181 16.4149 16.7292 16.3698C16.8403 16.3247 16.9549 16.3229 17.0729 16.3646L18.4375 16.7083C18.6806 16.4861 18.9601 16.2899 19.2761 16.1198C19.592 15.9497 19.9097 15.8125 20.2292 15.7083L20.4896 14.1458C20.5174 14.0139 20.5764 13.908 20.6667 13.8281C20.757 13.7483 20.8681 13.7083 21 13.7083H22.0833C22.2153 13.7083 22.3264 13.7483 22.4167 13.8281C22.507 13.908 22.566 14.0139 22.5938 14.1458L22.8542 15.7083C23.1736 15.8125 23.4913 15.9514 23.8073 16.125C24.1233 16.2986 24.4028 16.5 24.6458 16.7292L26 16.3646C26.1181 16.316 26.2344 16.316 26.349 16.3646C26.4636 16.4132 26.5486 16.4931 26.6042 16.6042L27.125 17.5208C27.1944 17.6181 27.2187 17.7257 27.1979 17.8438C27.1771 17.9618 27.1181 18.066 27.0208 18.1562L25.875 19.2083C25.9167 19.4167 25.9375 19.6771 25.9375 19.9896C25.9375 20.3021 25.9167 20.5625 25.875 20.7708L27.0104 21.8229C27.1076 21.9132 27.1684 22.0174 27.1927 22.1354C27.217 22.2535 27.1944 22.3611 27.125 22.4583L26.6042 23.3542C26.5486 23.4653 26.4653 23.5434 26.3542 23.5885C26.2431 23.6337 26.1285 23.6354 26.0104 23.5938L24.6458 23.25C24.4028 23.4722 24.1233 23.6684 23.8073 23.8385C23.4913 24.0087 23.1736 24.1458 22.8542 24.25L22.5938 25.8125C22.566 25.9444 22.507 26.0503 22.4167 26.1302C22.3264 26.2101 22.2153 26.25 22.0833 26.25H21C20.8681 26.25 20.757 26.2101 20.6667 26.1302C20.5764 26.0503 20.5174 25.9444 20.4896 25.8125L20.2292 24.25Z" fill="white"/>
</svg>
