<svg
  width="27"
  height="27"
  viewBox="0 0 27 27"
  fill="none"
  xmlns="http://www.w3.org/2000/svg"
>
<g clip-path="url(#clip0_210_24)">
<path
      d="M6.75 21.375C6.75 22.6125 7.7625 23.625 9 23.625H18C19.2375 23.625 20.25 22.6125 20.25 21.375V7.875H6.75V21.375ZM9.5175 13.365L11.1037 11.7788L13.5 14.1638L15.885 11.7788L17.4712 13.365L15.0862 15.75L17.4712 18.135L15.885 19.7213L13.5 17.3362L11.115 19.7213L9.52875 18.135L11.9138 15.75L9.5175 13.365ZM17.4375 4.5L16.3125 3.375H10.6875L9.5625 4.5H5.625V6.75H21.375V4.5H17.4375Z"
      fill="white"
    />
</g>
<defs>
<clipPath id="clip0_210_24">
<rect width="27" height="27" fill="white" />
</clipPath>
</defs>
</svg>
