<svg width="27" height="27" viewBox="0 0 27 27" fill="none" xmlns="http://www.w3.org/2000/svg">
<path d="M13.5893 19.125C13.8298 19.125 14.0297 19.0441 14.1891 18.8824C14.3484 18.7207 14.4281 18.5203 14.4281 18.2812V14.4562H18.3094C18.5344 14.4562 18.7266 14.3749 18.8859 14.2123C19.0453 14.0496 19.125 13.848 19.125 13.6076C19.125 13.3671 19.0441 13.1672 18.8824 13.0078C18.7207 12.8484 18.5203 12.7688 18.2812 12.7688H14.4281V8.69062C14.4281 8.46562 14.3468 8.27344 14.1841 8.11406C14.0215 7.95469 13.8199 7.875 13.5795 7.875C13.339 7.875 13.1391 7.95586 12.9797 8.11758C12.8203 8.2793 12.7406 8.47969 12.7406 8.71875V12.7688H8.69062C8.46562 12.7688 8.27344 12.8501 8.11406 13.0127C7.95469 13.1754 7.875 13.377 7.875 13.6174C7.875 13.8579 7.95586 14.0578 8.11758 14.2172C8.2793 14.3766 8.47969 14.4562 8.71875 14.4562H12.7406V18.3094C12.7406 18.5344 12.822 18.7266 12.9846 18.8859C13.1473 19.0453 13.3488 19.125 13.5893 19.125ZM13.4859 24.75C11.9016 24.75 10.425 24.4641 9.05625 23.8922C7.6875 23.3203 6.49687 22.5281 5.48438 21.5156C4.47187 20.5031 3.67969 19.3125 3.10781 17.9437C2.53594 16.575 2.25 15.0984 2.25 13.5141C2.25 11.9297 2.53594 10.4531 3.10781 9.08437C3.67969 7.71562 4.47187 6.525 5.48438 5.5125C6.49687 4.5 7.6875 3.70312 9.05625 3.12187C10.425 2.54063 11.9016 2.25 13.4859 2.25C15.0703 2.25 16.5469 2.54063 17.9156 3.12187C19.2844 3.70312 20.475 4.5 21.4875 5.5125C22.5 6.525 23.2969 7.71562 23.8781 9.08437C24.4594 10.4531 24.75 11.9297 24.75 13.5141C24.75 15.0984 24.4594 16.575 23.8781 17.9437C23.2969 19.3125 22.5 20.5031 21.4875 21.5156C20.475 22.5281 19.2844 23.3203 17.9156 23.8922C16.5469 24.4641 15.0703 24.75 13.4859 24.75ZM13.5 23.0625C16.125 23.0625 18.375 22.125 20.25 20.25C22.125 18.375 23.0625 16.125 23.0625 13.5C23.0625 10.875 22.125 8.625 20.25 6.75C18.375 4.875 16.125 3.9375 13.5 3.9375C10.875 3.9375 8.625 4.875 6.75 6.75C4.875 8.625 3.9375 10.875 3.9375 13.5C3.9375 16.125 4.875 18.375 6.75 20.25C8.625 22.125 10.875 23.0625 13.5 23.0625Z" fill="white"/>
</svg>
