<svg width="40" height="40" viewBox="0 0 40 40" fill="none" xmlns="http://www.w3.org/2000/svg">
<path d="M27.1635 25.7982C27.0203 25.6647 26.9487 25.5093 26.9487 25.3319C26.9487 25.1545 27.0203 25.0011 27.1635 24.8719L30.5289 21.4745H16.3301C16.1474 21.4745 15.9949 21.4125 15.8726 21.2887C15.7503 21.1648 15.6891 21.0105 15.6891 20.8255C15.6891 20.6406 15.7503 20.4889 15.8726 20.3702C15.9949 20.2517 16.1474 20.1924 16.3301 20.1924H30.5096L27.0705 16.7533C26.9551 16.6379 26.8974 16.4988 26.8974 16.3361C26.8974 16.1734 26.972 16.0183 27.1211 15.8708C27.2489 15.7476 27.4033 15.686 27.5843 15.686C27.7653 15.686 27.9167 15.7575 28.0385 15.9007L32.1917 20.0232C32.316 20.1467 32.4113 20.2797 32.4776 20.4223C32.5438 20.5649 32.5769 20.7123 32.5769 20.8646C32.5769 21.0169 32.5438 21.1571 32.4776 21.2853C32.4113 21.4135 32.316 21.5402 32.1917 21.6655L28.0481 25.8398C27.9327 25.9339 27.7922 25.9809 27.6266 25.9809C27.461 25.9809 27.3066 25.92 27.1635 25.7982ZM9.29489 35.0001C8.65439 35.0001 8.10964 34.7756 7.66064 34.3266C7.21167 33.8776 6.98718 33.3329 6.98718 32.6924V8.97441C6.98718 8.33394 7.21167 7.78921 7.66064 7.34021C8.10964 6.89123 8.65439 6.66675 9.29489 6.66675H19.5609C19.7436 6.66675 19.8961 6.72867 20.0184 6.8525C20.1408 6.97633 20.2019 7.13071 20.2019 7.31562C20.2019 7.50057 20.1408 7.65233 20.0184 7.77091C19.8961 7.8895 19.7436 7.94879 19.5609 7.94879H9.29489C9.03847 7.94879 8.80343 8.05562 8.58977 8.26929C8.37607 8.48298 8.26922 8.71803 8.26922 8.97441V32.6924C8.26922 32.9488 8.37607 33.1838 8.58977 33.3975C8.80343 33.6112 9.03847 33.718 9.29489 33.718H19.5609C19.7436 33.718 19.8961 33.78 20.0184 33.9038C20.1408 34.0276 20.2019 34.182 20.2019 34.3669C20.2019 34.5518 20.1408 34.7036 20.0184 34.8222C19.8961 34.9408 19.7436 35.0001 19.5609 35.0001H9.29489Z" fill="white"/>
</svg>
