<svg width="24" height="24" viewBox="0 0 24 24" fill="none" xmlns="http://www.w3.org/2000/svg">
<path d="M4.5 21C4.1 21 3.75 20.85 3.45 20.55C3.15 20.25 3 19.9 3 19.5V4.5C3 4.1 3.15 3.75 3.45 3.45C3.75 3.15 4.1 3 4.5 3H16.45C16.6574 3 16.8551 3.04167 17.043 3.125C17.231 3.20833 17.3917 3.31667 17.525 3.45L20.55 6.475C20.6833 6.60833 20.7917 6.76898 20.875 6.95695C20.9583 7.14492 21 7.3426 21 7.55V19.5C21 19.9 20.85 20.25 20.55 20.55C20.25 20.85 19.9 21 19.5 21H4.5ZM19.5 7.6L16.4 4.5H4.5V19.5H19.5V7.6ZM11.9941 17.875C12.7147 17.875 13.3292 17.6228 13.8375 17.1184C14.3458 16.614 14.6 16.0015 14.6 15.2809C14.6 14.5603 14.3478 13.9458 13.8434 13.4375C13.339 12.9292 12.7265 12.675 12.0059 12.675C11.2853 12.675 10.6708 12.9272 10.1625 13.4316C9.65417 13.936 9.4 14.5485 9.4 15.2691C9.4 15.9897 9.65221 16.6042 10.1566 17.1125C10.661 17.6208 11.2735 17.875 11.9941 17.875ZM6.575 9.4H14.025C14.2375 9.4 14.4156 9.32812 14.5594 9.18438C14.7031 9.04063 14.775 8.8625 14.775 8.65V6.575C14.775 6.3625 14.7031 6.18438 14.5594 6.04063C14.4156 5.89688 14.2375 5.825 14.025 5.825H6.575C6.3625 5.825 6.18438 5.89688 6.04063 6.04063C5.89688 6.18438 5.825 6.3625 5.825 6.575V8.65C5.825 8.8625 5.89688 9.04063 6.04063 9.18438C6.18438 9.32812 6.3625 9.4 6.575 9.4ZM4.5 7.6V19.5V4.5V7.6Z" fill="white"/>
</svg>
