<svg
  xmlns="http://www.w3.org/2000/svg"
  height="50"
  viewBox="0 96 960 960"
  width="50"
><path
    d="M479.879 723.999q-10.75 0-17.878-7.215-7.128-7.214-7.128-17.913V366.203l-88.565 88.565q-7.482 7.435-17.523 7.294-10.04-.141-18.065-7.91-7.564-7.854-7.59-18.016-.026-10.162 7.59-17.778L458.118 290.96q4.908-4.908 10.313-7.139 5.405-2.23 11.692-2.23t11.569 2.23q5.282 2.231 10.18 7.128l127.819 127.82q7.435 7.435 7.525 17.602.09 10.166-7.637 17.77-7.709 7.575-17.888 7.678-10.179.102-17.999-7.718l-88.565-87.898v332.668q0 10.699-7.249 17.913-7.249 7.215-17.999 7.215Zm-237.314 152q-25.788 0-44.176-18.388t-18.388-44.176V719.64q0-10.698 7.25-17.913 7.249-7.214 17.999-7.214t17.878 7.214q7.128 7.215 7.128 17.913v93.795q0 4.616 3.847 8.462 3.846 3.847 8.462 3.847h474.87q4.616 0 8.462-3.847 3.847-3.846 3.847-8.462V719.64q0-10.698 7.249-17.913 7.25-7.214 17.999-7.214 10.751 0 17.879 7.214 7.128 7.215 7.128 17.913v93.795q0 25.788-18.388 44.176t-44.176 18.388h-474.87Z"
    fill="#fff"
  /></svg>
